<svg width="100%" height="100%" viewBox="0 0 24 24" viewPort="0 0 24 24" stroke="currentColor" fill="none" xmlns="http://www.w3.org/2000/svg">
<g id="button-play--button-television-buttons-movies-play-tv-video-controls">
<path id="Union" fill-rule="evenodd" clip-rule="evenodd" d="M2.6759 0.00952148C2.38014 0.00952148 2.08933 0.084909 1.83091 0.228469C1.56777 0.362608 1.34566 0.565366 1.18814 0.8154C1.02835 1.06903 0.941136 1.36161 0.935971 1.66133L0.935896 1.66994V12.33L0.935971 12.3386C0.941136 12.6383 1.02835 12.9309 1.18814 13.1845C1.34566 13.4346 1.56777 13.6373 1.83091 13.7715C2.08933 13.915 2.38014 13.9904 2.6759 13.9904C2.97585 13.9904 3.27071 13.9129 3.53186 13.7653C3.53761 13.7621 3.54329 13.7587 3.5489 13.7552L12.1787 8.41771C12.4404 8.28582 12.6613 8.08489 12.8175 7.83641C12.9786 7.57982 13.0642 7.28296 13.0642 6.97994C13.0642 6.67693 12.9786 6.38006 12.8175 6.12348C12.6612 5.87474 12.4399 5.67364 12.1779 5.54176L3.54748 0.243821C3.54233 0.240661 3.53712 0.237594 3.53186 0.234622C3.27071 0.0870637 2.97585 0.00952148 2.6759 0.00952148Z" fill="black"/>
</g>
</svg>
