<svg width="100%" height="100%" fill="currentColor" viewBox="0 0 24 24" xmlns="http://www.w3.org/2000/svg">
<path fill-rule="evenodd" clip-rule="evenodd" d="M9.36285 11.056L17.1819 5.65689C17.5775 5.40635 18.0598 5.47313 18.4083 5.7351C18.6769 5.93699 18.8661 6.25481 18.875 6.63264V17.3333V17.3376C18.875 18.2216 17.8961 18.7938 17.1819 18.3415L9.36285 12.975C8.71234 12.5361 8.71234 11.4948 9.36285 11.056ZM5.12503 6.74216C5.12503 6.18987 5.57275 5.74216 6.12503 5.74216C6.67732 5.74216 7.12503 6.18987 7.12503 6.74216V17.2578C7.12503 17.8101 6.67732 18.2578 6.12503 18.2578C5.57275 18.2578 5.12503 17.8101 5.12503 17.2578V6.74216Z"/>
</svg>
