<svg width="current" height="current" fill="currentColor" viewBox="0 0 24 24" xmlns="http://www.w3.org/2000/svg">
<path fill-rule="evenodd" clip-rule="evenodd" d="M7.6759 5.00952C7.38014 5.00952 7.08933 5.08491 6.83091 5.22847C6.56777 5.36261 6.34566 5.56537 6.18814 5.8154C6.02835 6.06903 5.94114 6.36161 5.93597 6.66133L5.9359 6.66994V17.33L5.93597 17.3386C5.94114 17.6383 6.02835 17.9309 6.18814 18.1845C6.34566 18.4346 6.56777 18.6373 6.83091 18.7715C7.08933 18.915 7.38014 18.9904 7.6759 18.9904C7.97585 18.9904 8.27071 18.9129 8.53186 18.7653C8.53761 18.7621 8.54329 18.7587 8.5489 18.7552L17.1787 13.4177C17.4404 13.2858 17.6613 13.0849 17.8175 12.8364C17.9786 12.5798 18.0642 12.283 18.0642 11.9799C18.0642 11.6769 17.9786 11.3801 17.8175 11.1235C17.6612 10.8747 17.4399 10.6736 17.1779 10.5418L8.54748 5.24382C8.54233 5.24066 8.53712 5.23759 8.53186 5.23462C8.27071 5.08706 7.97585 5.00952 7.6759 5.00952Z"/>
</svg>
