<svg width="14" height="14" viewBox="0 0 14 14" stroke="currentColor" fill="none" xmlns="http://www.w3.org/2000/svg">
<g id="button-next--button-television-buttons-movies-skip-next-video-controls">
<path id="Union" fill-rule="evenodd" clip-rule="evenodd" d="M9.63717 6.056L1.81815 0.656892C1.4225 0.406346 0.940264 0.473133 0.591745 0.735097C0.323148 0.936989 0.13397 1.25481 0.125054 1.63264V12.3333L0.125046 12.3376C0.125047 13.2216 1.10399 13.7938 1.81815 13.3415L9.63717 7.97496C10.2876 7.53614 10.2876 6.49482 9.63717 6.056ZM13.8749 1.74216C13.8749 1.18987 13.4272 0.742157 12.8749 0.742157C12.3227 0.742157 11.8749 1.18987 11.8749 1.74216V12.2578C11.8749 12.8101 12.3227 13.2578 12.8749 13.2578C13.4272 13.2578 13.8749 12.8101 13.8749 12.2578V1.74216Z" fill="black"/>
</g>
</svg>
