<svg width="100%" height="100%" viewBox="0 0 24 24" viewPort="0 0 24 24" stroke="currentColor" fill="none" xmlns="http://www.w3.org/2000/svg">
<g id="button-pause-2--button-television-buttons-movies-tv-pause-video-controls">
<path id="Union" fill-rule="evenodd" clip-rule="evenodd" d="M0 1.5C0 0.671573 0.671573 0 1.5 0H4C4.82843 0 5.5 0.671573 5.5 1.5V12.5C5.5 13.3284 4.82843 14 4 14H1.5C0.671573 14 0 13.3284 0 12.5V1.5ZM10 0C9.17157 0 8.5 0.671573 8.5 1.5V12.5C8.5 13.3284 9.17157 14 10 14H12.5C13.3284 14 14 13.3284 14 12.5V1.5C14 0.671573 13.3284 0 12.5 0H10Z" fill="black"/>
</g>
</svg>
