<svg width="100%" height="100%" fill="currentColor" viewBox="0 0 24 24" xmlns="http://www.w3.org/2000/svg">
<path fill-rule="evenodd" clip-rule="evenodd" d="M14.6372 11.056L6.81815 5.65689C6.4225 5.40635 5.94026 5.47313 5.59174 5.7351C5.32315 5.93699 5.13397 6.25481 5.12505 6.63264V17.3333L5.12505 17.3376C5.12505 18.2216 6.10399 18.7938 6.81815 18.3415L14.6372 12.975C15.2876 12.5361 15.2876 11.4948 14.6372 11.056ZM18.8749 6.74216C18.8749 6.18987 18.4272 5.74216 17.8749 5.74216C17.3227 5.74216 16.8749 6.18987 16.8749 6.74216V17.2578C16.8749 17.8101 17.3227 18.2578 17.8749 18.2578C18.4272 18.2578 18.8749 17.8101 18.8749 17.2578V6.74216Z"/>
</svg>
