<svg width="14" height="14" viewBox="0 0 14 14" stroke="currentColor" fill="none" xmlns="http://www.w3.org/2000/svg">
<g id="button-previous--button-television-buttons-movies-skip-previous-video-controls">
<path id="Union" fill-rule="evenodd" clip-rule="evenodd" d="M4.36285 6.056L12.1819 0.656892C12.5775 0.406346 13.0598 0.473133 13.4083 0.735097C13.6769 0.936989 13.8661 1.25481 13.875 1.63264V12.3333V12.3376C13.875 13.2216 12.8961 13.7938 12.1819 13.3415L4.36285 7.97496C3.71234 7.53614 3.71234 6.49482 4.36285 6.056ZM0.125031 1.74216C0.125031 1.18987 0.572745 0.742157 1.12503 0.742157C1.67732 0.742157 2.12503 1.18987 2.12503 1.74216V12.2578C2.12503 12.8101 1.67732 13.2578 1.12503 13.2578C0.572745 13.2578 0.12503 12.8101 0.125031 12.2578V1.74216Z" fill="black"/>
</g>
</svg>
