<svg width="24" height="24" viewBox="0 0 24 24" fill="none" xmlns="http://www.w3.org/2000/svg">
<path d="M6 12V9.66667C6 9.04783 6.23705 8.45434 6.65901 8.01675C7.08097 7.57917 7.65326 7.33333 8.25 7.33333H15M15 7.33333L12.75 5M15 7.33333L12.75 9.66667M18 12V14.3333C18 14.9522 17.7629 15.5457 17.341 15.9832C16.919 16.4208 16.3467 16.6667 15.75 16.6667H6M6 16.6667L8.25 19M6 16.6667L8.25 14.3333" stroke="white" stroke-width="2" stroke-linecap="round" stroke-linejoin="round"/>
<path d="M18.4336 5C18.7464 5 19 5.25359 19 5.56641V9.61458C19 9.82744 18.8274 10 18.6146 10V10C18.4017 10 18.2292 9.82744 18.2292 9.61458V5.86507C18.2292 5.85348 18.2198 5.84408 18.2082 5.84408V5.84408C18.2038 5.84408 18.1995 5.84547 18.1959 5.84805L17.5181 6.33726C17.3019 6.49326 17 6.33882 17 6.07227V6.07227C17 5.9675 17.0502 5.86907 17.1351 5.80761L18.1013 5.1077C18.198 5.03769 18.3143 5 18.4336 5V5Z" fill="white"/>
</svg>
