<svg width="100" height="16" viewBox="0 0 100 16" fill="none" xmlns="http://www.w3.org/2000/svg">
<path d="M53.7025 11.4528C53.8921 11.4528 54.0169 11.5776 54.0169 11.744V14.9242C54.0169 15.0721 53.8921 15.2154 53.7025 15.2154H42.7614C42.595 15.2154 42.4702 15.0906 42.4702 14.9242C42.4702 14.8595 42.5534 14.6515 42.6782 14.4019L47.4254 4.54702H43.2005C43.0526 4.54702 42.9093 4.3991 42.9093 4.2327V1.09874C42.9093 0.932339 43.0573 0.784424 43.2005 0.784424H53.5546C53.7441 0.784424 53.8689 0.909227 53.8689 1.09874C53.8689 1.18195 53.7857 1.41306 53.6609 1.66267L48.9554 11.4528H53.7025Z" fill="white"/>
<path d="M55.6948 15.2155C55.5053 15.2155 55.3805 15.0907 55.3805 14.9243V12.6039C55.3805 12.456 55.4637 12.248 55.5885 12.1C58.8103 8.77194 60.5067 6.36832 60.5067 5.05095C60.5067 4.52863 60.1323 4.23279 59.4805 4.23279C58.8288 4.23279 57.932 4.5656 57.0954 5.15264C56.9475 5.23585 56.7811 5.13415 56.7395 4.98624L55.6301 2.45319C55.5654 2.30527 55.6301 2.22207 55.7965 2.09727C57.2202 1.0711 58.912 0.465576 60.3773 0.465576C63.3078 0.465576 65.0412 1.99095 65.0412 4.5656C65.0412 6.63642 63.9735 9.06315 61.653 11.4483H65.2076C65.374 11.4483 65.5219 11.5731 65.5219 11.7395V14.9197C65.5219 15.0861 65.374 15.2109 65.2076 15.2109H55.6902L55.6948 15.2155Z" fill="white"/>
<path d="M83.318 0.784424C83.4844 0.784424 83.6092 0.932339 83.6092 1.09874V14.9288C83.6092 15.0767 83.4844 15.22 83.318 15.22H79.449C79.2826 15.22 79.1347 15.0721 79.1347 14.9288V8.77647L77.0223 14.9057C76.9576 15.0721 76.6895 15.22 76.5 15.22H74.198C74.0085 15.22 73.7358 15.0721 73.6757 14.9057L71.5633 8.77647V14.9288C71.5633 15.0767 71.4154 15.22 71.249 15.22H67.3801C67.2137 15.22 67.0889 15.0721 67.0889 14.9288V1.09874C67.0889 0.932339 67.2137 0.784424 67.3801 0.784424H71.7528C72.0255 0.784424 72.3399 0.97394 72.4647 1.20044L75.3536 9.19248L78.2426 1.20044C78.3674 0.969318 78.6817 0.784424 78.9544 0.784424H83.3272H83.318Z" fill="white"/>
<path d="M40.4179 0.784424C40.5843 0.784424 40.7091 0.932339 40.7091 1.09874V14.9288C40.7091 15.0767 40.5843 15.22 40.4179 15.22H36.549C36.3826 15.22 36.2347 15.0721 36.2347 14.9288V8.77647L34.1223 14.9057C34.0576 15.0721 33.7895 15.22 33.6 15.22H31.298C31.1085 15.22 30.8358 15.0721 30.7757 14.9057L28.6633 8.77647V14.9288C28.6633 15.0767 28.5154 15.22 28.349 15.22H24.48C24.3136 15.22 24.1888 15.0721 24.1888 14.9288V1.09874C24.1888 0.932339 24.3136 0.784424 24.48 0.784424H28.8528C29.1255 0.784424 29.4398 0.97394 29.5646 1.20044L32.4536 9.19248L35.3426 1.20044C35.4674 0.969318 35.7817 0.784424 36.0544 0.784424H40.4272H40.4179Z" fill="white"/>
<path d="M92.5719 15.5345C88.116 15.5345 85.1438 12.5207 85.1438 8.02314C85.1438 3.52559 88.116 0.470215 92.5719 0.470215C97.0279 0.470215 100 3.48399 100 8.02314C100 12.5623 97.0279 15.5345 92.5719 15.5345ZM92.5719 4.69967C90.857 4.69967 89.7061 6.04015 89.7061 8.02776C89.7061 10.0154 90.857 11.3559 92.5719 11.3559C94.2868 11.3559 95.4378 10.0154 95.4378 8.02776C95.4378 6.04015 94.2868 4.69967 92.5719 4.69967Z" fill="white"/>
<path d="M20.3568 9.64556C20.3568 8.73674 19.62 8 18.7112 8C17.8024 8 17.0657 8.73674 17.0657 9.64556V12C17.0657 12.9088 17.8024 13.6456 18.7112 13.6456C19.62 13.6456 20.3568 12.9088 20.3568 12V9.64556Z" fill="white"/>
<path d="M16.0904 5.32842C16.0904 4.4196 15.3537 3.68286 14.4449 3.68286C13.5361 3.68286 12.7993 4.4196 12.7993 5.32842V13.8705C12.7993 14.7793 13.5361 15.5161 14.4449 15.5161C15.3537 15.5161 16.0904 14.7793 16.0904 13.8705V5.32842Z" fill="white"/>
<path d="M7.5576 2.81377C7.5576 1.90495 6.82085 1.16821 5.91204 1.16821C5.00322 1.16821 4.26648 1.90495 4.26648 2.81377V10.0894C4.26648 10.9982 5.00322 11.7349 5.91204 11.7349C6.82085 11.7349 7.5576 10.9982 7.5576 10.0894V2.81377Z" fill="white"/>
<path d="M3.29112 6.59478C3.29112 5.68596 2.55437 4.94922 1.64556 4.94922C0.736741 4.94922 0 5.68596 0 6.59478V13.8704C0 14.7792 0.736741 15.5159 1.64556 15.5159C2.55437 15.5159 3.29112 14.7792 3.29112 13.8704V6.59478Z" fill="white"/>
<path d="M11.824 8.37456C11.824 7.46575 11.0872 6.729 10.1784 6.729C9.26958 6.729 8.53284 7.46575 8.53284 8.37456V12.1603C8.53284 13.0691 9.26958 13.8058 10.1784 13.8058C11.0872 13.8058 11.824 13.0691 11.824 12.1603V8.37456Z" fill="white"/>
</svg>
