<svg xmlns="http://www.w3.org/2000/svg" width="100%" height="100%" stroke="currentColor" viewBox="0 0 24 24" fill="none">
  <path d="M6 7H18" stroke-width="2" stroke-linecap="round" stroke-linejoin="round"/>
  <path d="M6 12H18" stroke-width="2" stroke-linecap="round" stroke-linejoin="round"/>
  <path d="M6 17H13.5" stroke-width="2" stroke-linecap="round" stroke-linejoin="round"/>
  <path fill-rule="evenodd" clip-rule="evenodd" d="M16.4396 15.4236C16.3649 15.4236 16.2914 15.4427 16.2261 15.479C16.1597 15.5129 16.1035 15.5641 16.0637 15.6272C16.0234 15.6913 16.0013 15.7652 16 15.841L16 15.8431V18.5363L16 18.5385C16.0013 18.6142 16.0234 18.6882 16.0637 18.7522C16.1035 18.8154 16.1597 18.8666 16.2261 18.9005C16.2914 18.9368 16.3649 18.9558 16.4396 18.9558C16.5154 18.9558 16.5899 18.9363 16.6559 18.899C16.6573 18.8982 16.6588 18.8973 16.6602 18.8964L18.8405 17.5479C18.9066 17.5146 18.9624 17.4638 19.0018 17.4011C19.0425 17.3362 19.0642 17.2612 19.0642 17.1847C19.0642 17.1081 19.0425 17.0331 19.0018 16.9683C18.9624 16.9055 18.9064 16.8547 18.8403 16.8213L16.6598 15.4828C16.6585 15.482 16.6572 15.4813 16.6559 15.4805C16.5899 15.4432 16.5154 15.4236 16.4396 15.4236Z" fill="white"/>
</svg>