<svg width="40" height="40" viewBox="0 0 40 40" fill="currentColor" xmlns="http://www.w3.org/2000/svg">
<path d="M10 11.6667L30 11.6667" stroke="currentColor" stroke-width="3.33333" stroke-linecap="round" stroke-linejoin="round"/>
<path d="M10 20L30 20" stroke="currentColor" stroke-width="3.33333" stroke-linecap="round" stroke-linejoin="round"/>
<path d="M10 28.3333L22.5 28.3333" stroke="currentColor" stroke-width="3.33333" stroke-linecap="round" stroke-linejoin="round"/>
<path fill-rule="evenodd" clip-rule="evenodd" d="M27.3995 25.7061C27.2749 25.7061 27.1525 25.7378 27.0436 25.7982C26.9328 25.8547 26.8393 25.9401 26.773 26.0454C26.7057 26.1522 26.669 26.2754 26.6668 26.4016L26.6668 26.4052V30.8939L26.6668 30.8975C26.669 31.0237 26.7057 31.1469 26.773 31.2537C26.8393 31.359 26.9328 31.4444 27.0436 31.5009C27.1525 31.5613 27.2749 31.593 27.3995 31.593C27.5258 31.593 27.6499 31.5604 27.7599 31.4983C27.7623 31.4969 27.7647 31.4955 27.7671 31.494L31.4008 29.2465C31.511 29.191 31.604 29.1064 31.6698 29.0018C31.7377 28.8937 31.7737 28.7687 31.7737 28.6411C31.7737 28.5135 31.7377 28.3885 31.6698 28.2805C31.604 28.1758 31.5108 28.0911 31.4005 28.0355L27.7665 25.8047C27.7643 25.8034 27.7621 25.8021 27.7599 25.8008C27.6499 25.7387 27.5258 25.7061 27.3995 25.7061Z" fill="currentColor"/>
</svg>
