<svg width="24" height="24" viewBox="0 0 24 24" fill="none" xmlns="http://www.w3.org/2000/svg">
<path fill-rule="evenodd" clip-rule="evenodd" d="M14.5945 6.90187C14.6247 5.382 12.9166 4.46899 11.6514 5.3363L11.6476 5.3389L6.66118 8.80964H4.93241C3.87498 8.80964 3 9.67656 3 10.7242V13.2771C3 14.3247 3.87498 15.1917 4.93241 15.1917H6.65737L11.526 18.6583L11.5355 18.665C12.7869 19.5228 14.5604 18.6345 14.5943 17.1204L14.5945 17.1062V6.90187ZM18.1257 7.42235C18.537 7.08537 19.146 7.14246 19.4862 7.54985C20.5544 8.82943 21 10.3671 21 12.0006C21 13.6341 20.5544 15.1718 19.4862 16.4514C19.146 16.8587 18.537 16.9159 18.1257 16.5789C17.7146 16.2418 17.6571 15.6385 17.9972 15.2311C18.7257 14.3584 19.0676 13.2789 19.0676 12.0006C19.0676 10.7223 18.7257 9.64281 17.9972 8.77017C17.6571 8.36277 17.7146 7.75933 18.1257 7.42235ZM16.1408 9.81569C16.6241 9.5916 17.1992 9.79812 17.4254 10.277C17.6779 10.8117 17.8015 11.402 17.7801 12.0006C17.8015 12.5991 17.6779 13.1894 17.4254 13.7241C17.1992 14.203 16.6241 14.4095 16.1408 14.1854C15.6574 13.9614 15.449 13.3915 15.6752 12.9126C15.802 12.644 15.8624 12.3468 15.848 12.0461C15.8465 12.0158 15.8465 11.9854 15.848 11.955C15.8624 11.6543 15.802 11.3571 15.6752 11.0885C15.449 10.6096 15.6574 10.0398 16.1408 9.81569Z" fill="white"/>
</svg>
