<svg width="24" height="24" viewBox="0 0 24 24" fill="currentColor" xmlns="http://www.w3.org/2000/svg">
<path fill-rule="evenodd" clip-rule="evenodd" d="M14.5715 6.86472C14.6016 5.33377 12.8969 4.41409 11.6342 5.28772L11.6305 5.29035L6.65392 8.7864H4.92858C3.87325 8.7864 3.00001 9.65965 3.00001 10.715V13.2864C3.00001 14.3417 3.87325 15.215 4.92858 15.215H6.65012L11.5091 18.7069L11.5185 18.7136C12.7675 19.5778 14.5374 18.6829 14.5713 17.1578L14.5715 17.1435V6.86472ZM20.7176 9.55093C21.0941 9.9275 21.0941 10.5381 20.7176 10.9146L19.6316 12.0006L20.7176 13.0866C21.0941 13.4632 21.0941 14.0738 20.7176 14.4504C20.341 14.8269 19.7305 14.8269 19.3539 14.4504L18.2679 13.3643L17.1818 14.4504C16.8053 14.8269 16.1948 14.8269 15.8182 14.4504C15.4416 14.0738 15.4416 13.4632 15.8182 13.0866L16.9041 12.0006L15.8182 10.9146C15.4416 10.5381 15.4416 9.9275 15.8182 9.55093C16.1948 9.17435 16.8053 9.17435 17.1818 9.55093L18.2679 10.6369L19.3539 9.55093C19.7305 9.17435 20.341 9.17435 20.7176 9.55093Z" fill="currentColor"/>
</svg>
