<svg width="26" height="26" viewBox="0 0 26 26" fill="none" xmlns="http://www.w3.org/2000/svg">
<path d="M11.1787 12.0131H7.59659C6.96542 12.0131 6.45374 12.5248 6.45374 13.156V16.7303H18.9188V13.156C18.9188 12.5248 18.4071 12.0131 17.7759 12.0131H14.1965" stroke="#F5F5F5" stroke-linecap="round" stroke-linejoin="round"/>
<path d="M6.45374 20.2008V16.7302H18.9188V20.2008" stroke="#F5F5F5" stroke-linecap="round" stroke-linejoin="round"/>
<path d="M15.6753 10.5344L13.0903 13.1195C12.8671 13.3426 12.5053 13.3426 12.2822 13.1195L8.84888 9.68615C8.62573 9.46299 8.62573 9.10119 8.84888 8.87802L11.4339 6.29302C11.6571 6.06985 12.0189 6.06985 12.242 6.29302L15.6753 9.72631C15.8985 9.94946 15.8985 10.3113 15.6753 10.5344Z" stroke="#F5F5F5" stroke-linecap="round" stroke-linejoin="round"/>
<path d="M10.5657 14.3717H14.8071" stroke="#F5F5F5" stroke-linecap="round" stroke-linejoin="round"/>
</svg>
